<mxfile host="app.diagrams.net" modified="2021-06-24T18:19:10.738Z" agent="5.0 (Macintosh; Intel Mac OS X 10_15_7) AppleWebKit/537.36 (KHTML, like Gecko) Chrome/91.0.4472.106 Safari/537.36" etag="gScW8NK6gwop7xQDL67V" version="14.7.7" type="github">
  <diagram id="C5RBs43oDa-KdzZeNtuy" name="Page-1">
    <mxGraphModel dx="946" dy="646" grid="1" gridSize="10" guides="1" tooltips="1" connect="1" arrows="1" fold="1" page="1" pageScale="1" pageWidth="827" pageHeight="1169" math="0" shadow="0">
      <root>
        <mxCell id="WIyWlLk6GJQsqaUBKTNV-0" />
        <mxCell id="WIyWlLk6GJQsqaUBKTNV-1" parent="WIyWlLk6GJQsqaUBKTNV-0" />
        <mxCell id="mnMVba5kUhPLz3tyAUtk-12" value="" style="edgeStyle=orthogonalEdgeStyle;rounded=0;orthogonalLoop=1;jettySize=auto;html=1;" edge="1" parent="WIyWlLk6GJQsqaUBKTNV-1" source="mnMVba5kUhPLz3tyAUtk-0" target="mnMVba5kUhPLz3tyAUtk-1">
          <mxGeometry relative="1" as="geometry" />
        </mxCell>
        <mxCell id="mnMVba5kUhPLz3tyAUtk-0" value="Data" style="shape=cube;whiteSpace=wrap;html=1;boundedLbl=1;backgroundOutline=1;darkOpacity=0.05;darkOpacity2=0.1;" vertex="1" parent="WIyWlLk6GJQsqaUBKTNV-1">
          <mxGeometry x="30" y="80" width="120" height="80" as="geometry" />
        </mxCell>
        <mxCell id="mnMVba5kUhPLz3tyAUtk-13" value="" style="edgeStyle=orthogonalEdgeStyle;rounded=0;orthogonalLoop=1;jettySize=auto;html=1;" edge="1" parent="WIyWlLk6GJQsqaUBKTNV-1" source="mnMVba5kUhPLz3tyAUtk-1" target="mnMVba5kUhPLz3tyAUtk-2">
          <mxGeometry relative="1" as="geometry" />
        </mxCell>
        <mxCell id="mnMVba5kUhPLz3tyAUtk-1" value="EDA and Data Preprocessing" style="rounded=1;whiteSpace=wrap;html=1;" vertex="1" parent="WIyWlLk6GJQsqaUBKTNV-1">
          <mxGeometry x="200" y="90" width="120" height="60" as="geometry" />
        </mxCell>
        <mxCell id="mnMVba5kUhPLz3tyAUtk-14" value="" style="edgeStyle=orthogonalEdgeStyle;rounded=0;orthogonalLoop=1;jettySize=auto;html=1;exitX=1;exitY=0.5;exitDx=0;exitDy=0;" edge="1" parent="WIyWlLk6GJQsqaUBKTNV-1" source="mnMVba5kUhPLz3tyAUtk-2" target="mnMVba5kUhPLz3tyAUtk-10">
          <mxGeometry relative="1" as="geometry" />
        </mxCell>
        <mxCell id="mnMVba5kUhPLz3tyAUtk-2" value="Data Oversampling" style="rounded=1;whiteSpace=wrap;html=1;" vertex="1" parent="WIyWlLk6GJQsqaUBKTNV-1">
          <mxGeometry x="354" y="90" width="120" height="60" as="geometry" />
        </mxCell>
        <mxCell id="mnMVba5kUhPLz3tyAUtk-23" style="edgeStyle=orthogonalEdgeStyle;rounded=0;orthogonalLoop=1;jettySize=auto;html=1;entryX=1;entryY=0.5;entryDx=0;entryDy=0;" edge="1" parent="WIyWlLk6GJQsqaUBKTNV-1" source="mnMVba5kUhPLz3tyAUtk-4" target="mnMVba5kUhPLz3tyAUtk-11">
          <mxGeometry relative="1" as="geometry" />
        </mxCell>
        <mxCell id="mnMVba5kUhPLz3tyAUtk-4" value="Stratified K-Fold Cross Validation" style="swimlane;horizontal=0;" vertex="1" parent="WIyWlLk6GJQsqaUBKTNV-1">
          <mxGeometry x="479" y="260" width="202" height="220" as="geometry" />
        </mxCell>
        <mxCell id="mnMVba5kUhPLz3tyAUtk-7" value="&lt;font style=&quot;font-size: 15px&quot;&gt;XGBoost Classifier&lt;/font&gt;" style="text;html=1;align=center;verticalAlign=middle;resizable=0;points=[];autosize=1;strokeColor=none;" vertex="1" parent="mnMVba5kUhPLz3tyAUtk-4">
          <mxGeometry x="42" y="90" width="140" height="20" as="geometry" />
        </mxCell>
        <mxCell id="mnMVba5kUhPLz3tyAUtk-6" value="&lt;font style=&quot;font-size: 15px&quot;&gt;Random Forest Classifier&lt;/font&gt;" style="text;html=1;align=center;verticalAlign=middle;resizable=0;points=[];autosize=1;strokeColor=none;" vertex="1" parent="mnMVba5kUhPLz3tyAUtk-4">
          <mxGeometry x="22" y="50" width="180" height="20" as="geometry" />
        </mxCell>
        <mxCell id="mnMVba5kUhPLz3tyAUtk-8" value="&lt;font style=&quot;font-size: 15px&quot;&gt;K-Nearest Neighbors&lt;/font&gt;" style="text;html=1;align=center;verticalAlign=middle;resizable=0;points=[];autosize=1;strokeColor=none;" vertex="1" parent="mnMVba5kUhPLz3tyAUtk-4">
          <mxGeometry x="30" y="134" width="160" height="20" as="geometry" />
        </mxCell>
        <mxCell id="mnMVba5kUhPLz3tyAUtk-9" value="Data with Less Multicollinearity" style="rounded=0;whiteSpace=wrap;html=1;" vertex="1" parent="WIyWlLk6GJQsqaUBKTNV-1">
          <mxGeometry x="520" y="30" width="120" height="60" as="geometry" />
        </mxCell>
        <mxCell id="mnMVba5kUhPLz3tyAUtk-10" value="Data with high Multicollinearity" style="rounded=0;whiteSpace=wrap;html=1;" vertex="1" parent="WIyWlLk6GJQsqaUBKTNV-1">
          <mxGeometry x="520" y="150" width="120" height="60" as="geometry" />
        </mxCell>
        <mxCell id="mnMVba5kUhPLz3tyAUtk-11" value="Analysis of Result" style="rounded=1;whiteSpace=wrap;html=1;" vertex="1" parent="WIyWlLk6GJQsqaUBKTNV-1">
          <mxGeometry x="300" y="340" width="120" height="60" as="geometry" />
        </mxCell>
        <mxCell id="mnMVba5kUhPLz3tyAUtk-15" value="" style="endArrow=none;html=1;" edge="1" parent="WIyWlLk6GJQsqaUBKTNV-1">
          <mxGeometry width="50" height="50" relative="1" as="geometry">
            <mxPoint x="497" y="120" as="sourcePoint" />
            <mxPoint x="497" y="60" as="targetPoint" />
          </mxGeometry>
        </mxCell>
        <mxCell id="mnMVba5kUhPLz3tyAUtk-16" value="" style="endArrow=classic;html=1;" edge="1" parent="WIyWlLk6GJQsqaUBKTNV-1">
          <mxGeometry width="50" height="50" relative="1" as="geometry">
            <mxPoint x="497" y="60" as="sourcePoint" />
            <mxPoint x="520" y="60" as="targetPoint" />
          </mxGeometry>
        </mxCell>
        <mxCell id="mnMVba5kUhPLz3tyAUtk-19" value="" style="endArrow=none;html=1;entryX=1;entryY=0.5;entryDx=0;entryDy=0;" edge="1" parent="WIyWlLk6GJQsqaUBKTNV-1" target="mnMVba5kUhPLz3tyAUtk-9">
          <mxGeometry width="50" height="50" relative="1" as="geometry">
            <mxPoint x="780" y="60" as="sourcePoint" />
            <mxPoint x="620" y="110" as="targetPoint" />
          </mxGeometry>
        </mxCell>
        <mxCell id="mnMVba5kUhPLz3tyAUtk-20" value="" style="endArrow=none;html=1;entryX=1;entryY=0.5;entryDx=0;entryDy=0;" edge="1" parent="WIyWlLk6GJQsqaUBKTNV-1">
          <mxGeometry width="50" height="50" relative="1" as="geometry">
            <mxPoint x="780" y="179.5" as="sourcePoint" />
            <mxPoint x="640" y="179.5" as="targetPoint" />
          </mxGeometry>
        </mxCell>
        <mxCell id="mnMVba5kUhPLz3tyAUtk-21" value="" style="endArrow=none;html=1;" edge="1" parent="WIyWlLk6GJQsqaUBKTNV-1">
          <mxGeometry width="50" height="50" relative="1" as="geometry">
            <mxPoint x="780" y="360" as="sourcePoint" />
            <mxPoint x="780" y="60" as="targetPoint" />
          </mxGeometry>
        </mxCell>
        <mxCell id="mnMVba5kUhPLz3tyAUtk-22" value="" style="endArrow=classic;html=1;" edge="1" parent="WIyWlLk6GJQsqaUBKTNV-1">
          <mxGeometry width="50" height="50" relative="1" as="geometry">
            <mxPoint x="780" y="360" as="sourcePoint" />
            <mxPoint x="680" y="360" as="targetPoint" />
          </mxGeometry>
        </mxCell>
      </root>
    </mxGraphModel>
  </diagram>
</mxfile>
